<svg xmlns="http://www.w3.org/2000/svg" version="1.1" xmlns:xlink="http://www.w3.org/1999/xlink" width="1000" height="1000"><metadata><rdf:RDF xmlns:rdf="http://www.w3.org/1999/02/22-rdf-syntax-ns#" xmlns:dc="http://purl.org/dc/elements/1.1/"><rdf:Description><dc:creator>RealFaviconGenerator</dc:creator><dc:source>https://realfavicongenerator.net</dc:source></rdf:Description></rdf:RDF></metadata><style>
    #light-icon {
      display: inline;
    }
    #dark-icon {
      display: none;
    }

    @media (prefers-color-scheme: dark) {
      #light-icon {
        display: none;
      }
      #dark-icon {
        display: inline;
      }
    }
  </style><g id="light-icon"><svg xmlns="http://www.w3.org/2000/svg" version="1.1" xmlns:xlink="http://www.w3.org/1999/xlink" width="1000" height="1000"><g><g transform="matrix(2,0,0,2,0,0)"><svg xmlns="http://www.w3.org/2000/svg" version="1" xmlns:xlink="http://www.w3.org/1999/xlink" width="500" zoomAndPan="magnify" viewBox="0 0 375 374.999991" height="500" preserveAspectRatio="xMidYMid meet"><defs><clipPath id="1b094cf7a3"><path d="M 93 117.210938 L 235 117.210938 L 235 257.460938 L 93 257.460938 Z M 93 117.210938 " clip-rule="nonzero"></path></clipPath><clipPath id="5daf3e4b77"><path d="M 0 164 L 94 164 L 94 257.460938 L 0 257.460938 Z M 0 164 " clip-rule="nonzero"></path></clipPath><clipPath id="1c5e052ad1"><path d="M 234 117.210938 L 375 117.210938 L 375 257.460938 L 234 257.460938 Z M 234 117.210938 " clip-rule="nonzero"></path></clipPath></defs><g clip-path="url(#1b094cf7a3)"><path fill="#000000" d="M 187.496094 117.210938 L 93.789062 117.210938 L 93.789062 164.070312 L 140.644531 210.921875 L 140.644531 257.777344 L 234.355469 257.777344 L 234.355469 164.070312 L 187.496094 164.070312 Z M 187.496094 117.210938 " fill-opacity="1" fill-rule="nonzero"></path></g><g clip-path="url(#5daf3e4b77)"><path fill="#000000" d="M 0.078125 164.070312 L 0.078125 257.777344 L 93.789062 257.777344 L 93.789062 164.070312 Z M 0.078125 164.070312 " fill-opacity="1" fill-rule="nonzero"></path></g><g clip-path="url(#1c5e052ad1)"><path fill="#000000" d="M 328.0625 164.070312 L 328.0625 117.210938 L 234.355469 117.210938 L 234.355469 164.070312 L 281.210938 210.921875 L 281.210938 257.777344 L 374.921875 257.777344 L 374.921875 164.070312 Z M 328.0625 164.070312 " fill-opacity="1" fill-rule="nonzero"></path></g></svg></g></g></svg></g><g id="dark-icon"><svg xmlns="http://www.w3.org/2000/svg" version="1.1" xmlns:xlink="http://www.w3.org/1999/xlink" width="1000" height="1000"><g><g transform="matrix(2,0,0,2,0,0)"><svg xmlns="http://www.w3.org/2000/svg" version="1" xmlns:xlink="http://www.w3.org/1999/xlink" width="500" zoomAndPan="magnify" viewBox="0 0 375 374.999991" height="500" preserveAspectRatio="xMidYMid meet"><defs><clipPath id="04be480b8a"><path d="M 93 117.210938 L 235 117.210938 L 235 257.460938 L 93 257.460938 Z M 93 117.210938 " clip-rule="nonzero"></path></clipPath><clipPath id="9dac2291df"><path d="M 0 163 L 94 163 L 94 257.460938 L 0 257.460938 Z M 0 163 " clip-rule="nonzero"></path></clipPath><clipPath id="e36d71b1b9"><path d="M 234 117.210938 L 375 117.210938 L 375 257.460938 L 234 257.460938 Z M 234 117.210938 " clip-rule="nonzero"></path></clipPath></defs><g clip-path="url(#04be480b8a)"><path fill="#ffffff" d="M 187.496094 117.210938 L 93.789062 117.210938 L 93.789062 163.964844 L 140.644531 210.710938 L 140.644531 257.460938 L 234.355469 257.460938 L 234.355469 163.964844 L 187.496094 163.964844 Z M 187.496094 117.210938 " fill-opacity="1" fill-rule="nonzero"></path></g><g clip-path="url(#9dac2291df)"><path fill="#ffffff" d="M 0.078125 163.964844 L 0.078125 257.460938 L 93.789062 257.460938 L 93.789062 163.964844 Z M 0.078125 163.964844 " fill-opacity="1" fill-rule="nonzero"></path></g><g clip-path="url(#e36d71b1b9)"><path fill="#ffffff" d="M 328.0625 163.964844 L 328.0625 117.210938 L 234.355469 117.210938 L 234.355469 163.964844 L 281.210938 210.710938 L 281.210938 257.460938 L 374.921875 257.460938 L 374.921875 163.964844 Z M 328.0625 163.964844 " fill-opacity="1" fill-rule="nonzero"></path></g></svg></g></g></svg></g></svg>